# xmcd
#
# Track frame offsets:
#	150
#	15497
#	35246
#	49681
#	66400
#	80141
#	100886
#	117484
#	136349
#	153772
#	173179
#	187628
#
# Disc length: 2687 seconds
# Revision: 0
# Processed by: cddbd v1.5.2PL0 Copyright (c) Steve Scherf et al.
# Submitted via: dBpowerAMP V12.0
#
DISCID=9c0a7d0c
DTITLE=Bowen and Humphrey - Take Another Run
DYEAR=2016
DGENRE=Country
TTITLE0=Roller Coaster Ride
TTITLE1=Across The Miles
TTITLE2=Never Walk Alone
TTITLE3=She Misses Him On Sunday
TTITLE4=The Road I'm On
TTITLE5=Smooth Sailing
TTITLE6=Love Will
TTITLE7=I Can Only Imagine
TTITLE8=Your Side Of The Moon
TTITLE9=Rise Above It All
TTITLE10=I Know Where I'm Going
TTITLE11=I Surrender To The King
EXTD=
EXTT0=
EXTT1=
EXTT2=
EXTT3=
EXTT4=
EXTT5=
EXTT6=
EXTT7=
EXTT8=
EXTT9=
EXTT10=
EXTT11=
PLAYORDER=
